<?xml version="1.0" encoding="UTF-8"?>
<svg width="52px" height="30px" viewBox="0 0 52 30" version="1.1" xmlns="http://www.w3.org/2000/svg" xmlns:xlink="http://www.w3.org/1999/xlink">
    <!-- Generator: Sketch 55.2 (78181) - https://sketchapp.com -->
    <title>tata-cliq-vector-logo</title>
    <desc>Created with Sketch.</desc>
    <g id="Page-1" stroke="none" stroke-width="1" fill="none" fill-rule="evenodd">
        <g id="Desktop-HD" transform="translate(-24.000000, -13.000000)" fill-rule="nonzero">
            <g id="tata-cliq-vector-logo" transform="translate(24.000000, 13.000000)">
                <path d="M0,0 L0,2.382 L2.24601222,2.382 L2.24601222,8.184 L5.37116058,8.184 L5.37116058,2.382 L7.6171728,2.382 L7.6171728,0 L0,0 Z M10.1341516,0 L6.96083143,8.184 L10.1281302,8.184 L11.8502736,3.228 L13.5844599,8.178 L16.7457372,8.178 L13.5844599,0 L10.1341516,0 Z M16.0954173,0 L16.0954173,2.382 L18.335408,2.382 L18.335408,8.184 L21.4605564,8.184 L21.4605564,2.382 L23.7065686,2.382 L23.7065686,0 L16.0954173,0 L16.0954173,0 Z M26.2235475,0 L23.0442058,8.184 L26.217526,8.184 L27.9456909,3.234 L29.6738558,8.184 L32.8411545,8.184 L29.6738558,0 L26.2235475,0 Z M0,20.466 C0,14.934 2.99869728,12.276 8.23738529,12.276 C11.416727,12.276 13.5001592,13.398 14.5780042,14.796 C14.788756,15.072 14.8670353,15.306 14.8670353,15.564 C14.8670353,16.242 14.2347798,16.8 13.4459659,16.8 C13.0786556,16.8 12.7113453,16.662 12.3681209,16.332 C11.2902759,15.282 10.1582376,14.7 8.23738529,14.7 C4.73890513,14.7 3.15525577,16.614 3.15525577,20.466 C3.15525577,24.552 4.73288365,26.208 8.23738529,26.208 C10.1823235,26.208 11.2360826,25.812 12.5005935,24.666 C12.9220971,24.294 13.2653215,24.156 13.6326318,24.156 C14.4214457,24.156 15.0537012,24.714 15.0537012,25.416 C15.0537012,25.674 14.9573575,25.92 14.788756,26.118 C13.5242451,27.612 11.0554381,28.638 8.23738529,28.638 C2.99869728,28.638 0,26.184 0,20.466 L0,20.466 Z M24.6880699,26.04 C25.3925832,26.016 25.9766668,26.568 26.0007527,27.27 C26.0007527,27.294 26.0007527,27.312 26.0007527,27.336 C26.0007527,28.086 25.4588194,28.638 24.6880699,28.638 L17.7573459,28.638 C16.9805749,28.638 16.4205773,28.062 16.4205773,27.294 L16.4205773,13.668 C16.4205773,12.9 17.0287468,12.276 17.7814318,12.276 C18.5341169,12.276 19.1362649,12.9 19.1362649,13.668 L19.1362649,26.04 L24.6880699,26.04 Z M31.4742784,27.192 C31.4742784,27.99 30.8600874,28.638 30.1074024,28.638 C29.3547173,28.638 28.7405263,27.99 28.7405263,27.192 L28.7405263,17.808 C28.7405263,17.01 29.3547173,16.362 30.1074024,16.362 C30.8661089,16.362 31.4742784,17.01 31.4742784,17.808 C31.4742784,17.808 31.4742784,27.192 31.4742784,27.192 Z M50.580436,30 C50.2010827,30 49.8458154,29.85 49.5808702,29.586 L47.6720609,27.678 L47.1180847,28.014 C47.0036766,28.086 46.8892684,28.152 46.7688388,28.212 L46.720667,28.236 C45.8776597,28.668 44.9684162,28.968 44.0290652,29.118 C43.6075616,29.184 43.174015,29.22 42.7464899,29.22 C42.0299337,29.22 41.319399,29.13 40.6269288,28.962 C39.5611267,28.68 38.561561,28.206 37.6703818,27.558 C36.7792027,26.916 36.0265177,26.1 35.454477,25.164 C35.30394,24.924 35.165446,24.678 35.0389949,24.42 C34.701792,23.712 34.4609328,22.956 34.3344817,22.182 L34.3224387,22.104 L34.3043743,22.014 L34.2863098,21.876 C34.238138,21.504 34.2080306,21.132 34.2080306,20.754 C34.2080306,20.052 34.2983528,19.356 34.4729757,18.678 C34.7559853,17.616 35.2437252,16.62 35.9060881,15.738 C36.5684509,14.856 37.3933937,14.106 38.3447877,13.536 C38.712098,13.308 39.1034942,13.104 39.5129549,12.936 C40.1572533,12.672 40.8316591,12.48 41.5241293,12.372 C42.6682106,12.198 43.8363778,12.264 44.9563732,12.564 L44.9804591,12.57 C45.0707813,12.594 45.1550821,12.618 45.2333613,12.642 L45.2634687,12.648 C47.0398055,13.212 48.5813045,14.334 49.653128,15.846 C49.7856006,16.032 49.8939872,16.2 49.9843094,16.362 C50.4238775,17.082 50.7490374,17.856 50.9537678,18.66 C51.0380685,18.984 51.1043048,19.326 51.1464551,19.692 C51.2668848,20.736 51.2006485,21.792 50.9597892,22.818 C50.7550589,23.634 50.429899,24.414 49.9963524,25.134 L49.6651709,25.68 L51.5800017,27.594 C52.1399994,28.152 52.1399994,29.034 51.5800017,29.592 C51.3150566,29.85 50.9537678,30 50.580436,30 L50.580436,30 Z M42.8187476,14.592 C42.5056307,14.592 42.1985352,14.616 41.8854182,14.664 C41.0544539,14.79 40.2596184,15.078 39.5430623,15.504 L39.5249978,15.516 C38.8144631,15.972 38.2424225,16.5 37.772747,17.13 C37.2850071,17.766 36.9297397,18.498 36.7370524,19.272 C36.5202791,20.046 36.4721072,20.862 36.6045798,21.654 C36.7310309,22.494 37.008019,23.232 37.4415656,23.922 C37.8510263,24.594 38.4110239,25.194 39.0553224,25.656 C40.8015517,26.958 43.1077787,27.246 45.1249747,26.412 C46.1606693,25.98 47.0518484,25.272 47.7081898,24.36 C48.1718438,23.748 48.5090467,23.028 48.7077556,22.23 C48.9004429,21.42 48.9425933,20.61 48.8281852,19.818 C48.56324,18.18 47.7142113,16.752 46.4316359,15.792 C45.3899198,15.012 44.1254089,14.592 42.8187476,14.592 L42.8187476,14.592 Z" id="Shape" fill="#FFFFFF"></path>
                <path d="M32.5434973,13.3360996 C33.1521676,13.944675 33.1521676,14.9349931 32.5434973,15.5435685 C31.934827,16.1521438 30.9443544,16.1521438 30.3356841,15.5435685 L28.4266727,13.6293223 C27.8346025,13.0041494 27.8622693,12.0193638 28.4875397,11.4273859 C29.0906767,10.857538 30.031349,10.857538 30.6344859,11.4273859 L32.5434973,13.3360996 L32.5434973,13.3360996 Z" id="Path" fill="#FF1744"></path>
            </g>
        </g>
    </g>
</svg>