<?xml version="1.0" encoding="UTF-8"?>
<svg width="22px" height="21px" viewBox="0 0 22 21" version="1.1" xmlns="http://www.w3.org/2000/svg" xmlns:xlink="http://www.w3.org/1999/xlink">
    <!-- Generator: Sketch 55.2 (78181) - https://sketchapp.com -->
    <title>9278</title>
    <desc>Created with Sketch.</desc>
    <g id="Page-1" stroke="none" stroke-width="1" fill="none" fill-rule="evenodd">
        <g id="Desktop-HD-Copy-2" transform="translate(-832.000000, -30.000000)" fill="#FFFFFF" fill-rule="nonzero">
            <g id="9278" transform="translate(832.000000, 30.000000)">
                <path d="M21.7670338,6.04903161 C21.9611977,6.29017435 22.0339298,6.57954565 21.9854682,6.91714549 L21.0631895,12.1740967 C21.0308289,12.4474706 20.9053917,12.6724584 20.686997,12.8492964 C20.4685625,13.0261344 20.2218522,13.1145534 19.946747,13.1145534 L6.50089565,13.1145534 L6.23392026,14.6096385 L19.0487785,14.6096385 C19.3562048,14.6096385 19.6230215,14.7181527 19.8496651,14.9351812 C20.0762293,15.1522096 20.1893726,15.4214857 20.1893726,15.7430094 C20.1893726,16.064533 20.0761896,16.3338091 19.8496651,16.5508376 C19.6230215,16.767866 19.3562048,16.8763803 19.0487785,16.8763803 L4.87477283,16.8763803 C4.53498597,16.8763803 4.24374009,16.7397327 4.00103519,16.4665558 C3.77451062,16.1931819 3.68551883,15.8796569 3.73405981,15.5260991 L4.34082205,12.2465578 L3.41854344,3.0348261 L0.797330536,2.21494077 C0.489904332,2.11848367 0.267424842,1.93356816 0.129892066,1.66031245 C-0.00764070976,1.38697794 -0.0359562812,1.09764605 0.0449453515,0.792198573 C0.142027311,0.486751096 0.332146148,0.26570358 0.615301863,0.129056025 C0.898457577,-0.00759153086 1.18565837,-0.0357248511 1.47690425,0.0446560639 L4.82623185,1.10568414 C5.03657609,1.16998887 5.2105146,1.29056025 5.34804738,1.46739826 C5.48558016,1.64423627 5.57052687,1.84522796 5.60288752,2.07029452 L5.79705144,3.90297939 L20.9903781,5.5909786 C21.3301649,5.63908894 21.5890502,5.79181268 21.7670338,6.04903161 Z M6.59801726,17.5033514 C7.08342706,17.5033514 7.49602539,17.6721513 7.83581225,18.00983 C8.1755991,18.3473116 8.34549253,18.7573725 8.34549253,19.239658 C8.34549253,19.7218252 8.1755991,20.1359052 7.83581225,20.4815431 C7.49602539,20.827181 7.08342706,21 6.59801726,21 C6.11260747,21 5.70000914,20.827181 5.36022228,20.4815431 C5.02043542,20.1359446 4.850542,19.7219435 4.850542,19.239658 C4.850542,18.7573725 5.02043542,18.347351 5.36022228,18.00983 C5.69996948,17.6721513 6.11256781,17.5033514 6.59801726,17.5033514 Z M16.9614768,17.5033514 C17.4468072,17.5033514 17.8595245,17.6721513 18.1993114,18.00983 C18.5389396,18.3473116 18.7089917,18.7573725 18.7089917,19.239658 C18.7089917,19.7218252 18.5390586,20.1359052 18.1993114,20.4815431 C17.8595245,20.827181 17.4468072,21 16.9614768,21 C16.476067,21 16.0633893,20.827181 15.7237214,20.4815431 C15.3839346,20.1359446 15.2139222,19.7219435 15.2139222,19.239658 C15.2139222,18.7573725 15.3838553,18.347351 15.7237214,18.00983 C16.0634686,17.6721513 16.476067,17.5033514 16.9614768,17.5033514 Z" id="Shape"></path>
            </g>
        </g>
    </g>
</svg>