<?xml version="1.0" encoding="UTF-8"?>
<svg width="22px" height="22px" viewBox="0 0 22 22" version="1.1" xmlns="http://www.w3.org/2000/svg" xmlns:xlink="http://www.w3.org/1999/xlink">
    <!-- Generator: Sketch 55.2 (78181) - https://sketchapp.com -->
    <title>134056</title>
    <desc>Created with Sketch.</desc>
    <g id="Page-1" stroke="none" stroke-width="1" fill="none" fill-rule="evenodd">
        <g id="Desktop-HD-Copy-2" transform="translate(-921.000000, -29.000000)" fill="#FFFFFF" fill-rule="nonzero">
            <g id="134056" transform="translate(921.000000, 29.000000)">
                <path d="M22,10.2485039 L20.9337617,10.2485039 L20.9337617,5.39298128 C20.9337617,4.22891458 19.9771534,3.28190733 18.801285,3.28190733 L17.3571814,3.28190733 L15.8793659,0.651506826 C15.6541333,0.249513253 15.2255011,0 14.7606353,0 C14.5439633,0 14.3290168,0.0553159976 14.1392215,0.159575485 L8.46765908,3.28184164 L2.13247666,3.28184164 C0.956608298,3.28184164 0,4.22884889 0,5.39291559 L0,19.8889261 C0,21.0529927 0.956608298,22 2.13247666,22 L18.801285,22 C19.9771534,22 20.9337617,21.0529927 20.9337617,19.8889261 L20.9337617,15.6316965 L22,15.6316965 L22,10.2485039 Z M18.801285,4.1262975 C19.4580698,4.1262975 19.9946066,4.62026541 20.0666757,5.25232623 L18.4639006,5.25232623 L17.8318025,4.1262975 L18.801285,4.1262975 Z M14.5541831,0.897603889 C14.7541982,0.786577718 15.0233624,0.864230342 15.1337888,1.06144961 L17.4880473,5.25193206 L6.64396483,5.25193206 L14.5541831,0.897603889 Z M20.0807445,19.8889261 C20.0807445,20.5872741 19.5066468,21.1556098 18.8012186,21.1556098 L2.13247666,21.1556098 C1.42704855,21.1556098 0.852950847,20.5872741 0.852950847,19.8889261 L0.852950847,5.39298128 C0.852950847,4.69463324 1.42704855,4.1262975 2.13247666,4.1262975 L6.93396679,4.1262975 L4.88849072,5.25239193 L2.39905283,5.25239193 C2.16320227,5.25239193 1.97254423,5.4415306 1.97254423,5.67461986 C1.97254423,5.90770912 2.16320227,6.09684779 2.39905283,6.09684779 L3.35440025,6.09684779 L18.9381898,6.09684779 L20.0807445,6.09684779 L20.0807445,10.2488981 L16.9617966,10.2488981 C15.5133795,10.2488981 14.3345912,11.4159211 14.3345912,12.8497354 L14.3345912,13.0313191 C14.3345912,14.4651991 15.5134458,15.6321564 16.9617966,15.6321564 L20.0807445,15.6321564 L20.0807445,19.8889261 Z M21.1469828,14.7873063 L20.9337617,14.7873063 L16.9617966,14.7873063 C15.9834216,14.7873063 15.187542,13.9994804 15.187542,13.0308592 L15.187542,12.8492756 C15.187542,11.88072 15.9833552,11.0928284 16.9617966,11.0928284 L20.9337617,11.0928284 L21.1469828,11.0928284 L21.1469828,14.7873063 Z M18.2681327,12.9747548 C18.2681327,13.4898768 17.8467339,13.9069805 17.3264558,13.9069805 C16.8061113,13.9069805 16.384779,13.4898112 16.384779,12.9747548 C16.384779,12.4596985 16.8061777,12.0425292 17.3264558,12.0425292 C17.8468003,12.0424635 18.2681327,12.460027 18.2681327,12.9747548 Z" id="Shape"></path>
            </g>
        </g>
    </g>
</svg>