<?xml version="1.0" encoding="UTF-8"?>
<svg width="22px" height="22px" viewBox="0 0 22 22" version="1.1" xmlns="http://www.w3.org/2000/svg" xmlns:xlink="http://www.w3.org/1999/xlink">
    <!-- Generator: Sketch 55.2 (78181) - https://sketchapp.com -->
    <title>116392</title>
    <desc>Created with Sketch.</desc>
    <g id="Page-1" stroke="none" stroke-width="1" fill="none" fill-rule="evenodd">
        <g id="Desktop-HD-Copy-2" transform="translate(-980.000000, -29.000000)" fill="#FFFFFF" fill-rule="nonzero">
            <g id="116392" transform="translate(980.000000, 29.000000)">
                <path d="M17.16,4.26081633 C17.577551,3.81183673 17.8379592,3.20122449 17.8379592,2.5277551 C17.8379592,1.12244898 16.7155102,0 15.355102,0 C14.322449,0 11.9428571,1.5444898 10.9910204,2.93183673 C10.0077551,1.5444898 7.63714286,0.0448979592 6.64489796,0.0448979592 C5.28897959,0.0448979592 4.16204082,1.16734694 4.16204082,2.57265306 C4.16204082,3.22367347 4.4044898,3.81183673 4.79510204,4.25632653 L0,4.25632653 L0,10.295102 L1.31102041,10.295102 L1.31102041,22 L8.19387755,22 L13.8106122,22 L20.6934694,22 L20.6934694,10.2995918 L22,10.2995918 L22,4.26081633 L17.16,4.26081633 Z M15.1660867,0.75862069 C15.9987346,0.75862069 16.6896552,1.41245952 16.6896552,2.28843589 C16.6896552,3.02610021 16.1448909,3.65898266 15.4406833,3.79310345 L11.6937678,3.79310345 C11.454603,3.72604306 11.3793103,3.64640884 11.3793103,3.60030482 C11.3793103,2.85425795 14.1474217,0.75862069 15.1660867,0.75862069 Z M6.83076743,0.75862069 C7.80151944,0.75862069 10.6206897,2.85425795 10.6206897,3.60030482 C10.6206897,3.66736521 10.4566813,3.74280815 10.3369996,3.79310345 L6.56037532,3.79310345 C5.85558277,3.65898266 5.31034483,3.02610021 5.31034483,2.28843589 C5.30593323,1.45437226 6.00186047,0.75862069 6.83076743,0.75862069 L6.83076743,0.75862069 Z M8.34482759,21.2413793 L2.27586207,21.2413793 L2.27586207,10.6206897 L8.34482759,10.6206897 L8.34482759,21.2413793 Z M8.34013315,9.86206897 L0.75862069,9.86206897 L0.75862069,5.31034483 L8.34482759,5.31034483 L8.34482759,9.86206897 L8.34013315,9.86206897 Z M12.8965517,21.2413793 L9.10344828,21.2413793 L9.10344828,5.31034483 L12.8965517,5.31034483 L12.8965517,21.2413793 Z M19.7241379,21.2413793 L13.6551724,21.2413793 L13.6551724,10.6206897 L19.7241379,10.6206897 L19.7241379,21.2413793 L19.7241379,21.2413793 Z M21.2366849,9.86206897 L13.6551724,9.86206897 L13.6551724,5.31034483 L21.2413793,5.31034483 L21.2413793,9.86206897 L21.2366849,9.86206897 Z" id="Shape"></path>
            </g>
        </g>
    </g>
</svg>