<?xml version="1.0" encoding="UTF-8"?>
<svg width="317px" height="40px" viewBox="0 0 317 40" version="1.1" xmlns="http://www.w3.org/2000/svg" xmlns:xlink="http://www.w3.org/1999/xlink">
    <!-- Generator: Sketch 55.2 (78181) - https://sketchapp.com -->
    <title>Group 37</title>
    <desc>Created with Sketch.</desc>
    <g id="Page-1" stroke="none" stroke-width="1" fill="none" fill-rule="evenodd">
        <g id="Desktop-HD-Copy" transform="translate(-725.000000, -2601.000000)">
            <g id="Group-37" transform="translate(725.000000, 2601.000000)">
                <g id="Group-23" fill-rule="nonzero">
                    <g id="355698">
                        <polygon id="Path" fill="#FF9911" points="20.1960368 22.1757723 24.5837563 19.5744681 6.93086676 37.3987742 2.54314721 40"></polygon>
                        <polygon id="Path" fill="#FFEB9A" points="11.3931778 17.3383587 16.1871647 14.4680851 24.5837563 19.5744681 20.3451777 22.2254547"></polygon>
                        <polygon id="Path" fill="#FF9911" points="17.7742242 8.5106383 22.0406091 5.82163038 16.1871647 14.4680851 11.3931778 17.3383587"></polygon>
                        <polygon id="Path" fill="#FFEB9A" points="8.47715736 2.68908898 12.743617 0 22.0406091 5.82163038 17.7742242 8.5106383"></polygon>
                        <polygon id="Path" fill="#FEDA44" points="20.3451777 22.2254547 2.54314721 40 9.50426786 22.0440195 0 16.5787547 8.47715736 2.68908898 17.7742242 8.5106383 11.6326246 17.21542"></polygon>
                    </g>
                </g>
                <g id="Group-23-Copy" transform="translate(292.000000, 0.000000)" fill-rule="nonzero">
                    <g id="355698">
                        <polygon id="Path" fill="#FF9911" points="20.1960368 22.1757723 24.5837563 19.5744681 6.93086676 37.3987742 2.54314721 40"></polygon>
                        <polygon id="Path" fill="#FFEB9A" points="11.3931778 17.3383587 16.1871647 14.4680851 24.5837563 19.5744681 20.3451777 22.2254547"></polygon>
                        <polygon id="Path" fill="#FF9911" points="17.7742242 8.5106383 22.0406091 5.82163038 16.1871647 14.4680851 11.3931778 17.3383587"></polygon>
                        <polygon id="Path" fill="#FFEB9A" points="8.47715736 2.68908898 12.743617 0 22.0406091 5.82163038 17.7742242 8.5106383"></polygon>
                        <polygon id="Path" fill="#FEDA44" points="20.3451777 22.2254547 2.54314721 40 9.50426786 22.0440195 0 16.5787547 8.47715736 2.68908898 17.7742242 8.5106383 11.6326246 17.21542"></polygon>
                    </g>
                </g>
                <g id="Group-35" transform="translate(30.000000, 7.000000)">
                    <path d="M22.4140625,15.8984375 L19.40625,15.8984375 L19.40625,5.53222656 L19.234375,5.53222656 L15.2919922,15.0068359 L13.1328125,15.0068359 L9.1796875,5.53222656 L9.0078125,5.53222656 L9.0078125,15.8984375 L6,15.8984375 L6,0.397460938 L9.82421875,0.397460938 L14.1103516,10.8173828 L14.3037109,10.8173828 L18.6005859,0.397460938 L22.4140625,0.397460938 L22.4140625,15.8984375 Z M32.9521484,0 C37.5283203,0 40.3964844,3.12597656 40.3964844,8.14257812 C40.3964844,13.1699219 37.5390625,16.2958984 32.9521484,16.2958984 C28.3544922,16.2958984 25.4863281,13.1699219 25.4863281,8.14257812 C25.4863281,3.11523438 28.3974609,0 32.9521484,0 Z M32.9521484,2.84667969 C30.4384766,2.84667969 28.8056641,4.8984375 28.8056641,8.14257812 C28.8056641,11.3759766 30.40625,13.4492188 32.9521484,13.4492188 C35.4765625,13.4492188 37.0878906,11.3759766 37.0878906,8.14257812 C37.0878906,4.8984375 35.4765625,2.84667969 32.9521484,2.84667969 Z M42.7705078,11.5908203 L45.9072266,11.5908203 C46.0576172,12.8476562 47.3251953,13.6533203 49.1513672,13.6533203 C50.8378906,13.6533203 52.0302734,12.8369141 52.0302734,11.6660156 C52.0302734,10.6777344 51.2568359,10.1083984 49.3554688,9.70019531 L47.3359375,9.27050781 C44.5107422,8.6796875 43.125,7.20800781 43.125,4.84472656 C43.125,1.92285156 45.4775391,0 49.0546875,0 C52.4707031,0 54.8876953,1.91210938 54.984375,4.67285156 L51.9335938,4.67285156 C51.7832031,3.44824219 50.6445312,2.63183594 49.0761719,2.63183594 C47.4541016,2.63183594 46.3798828,3.38378906 46.3798828,4.56542969 C46.3798828,5.52148438 47.1210938,6.06933594 48.9365234,6.45605469 L50.8056641,6.85351562 C53.9208984,7.50878906 55.2636719,8.8515625 55.2636719,11.2578125 C55.2636719,14.3837891 52.8681641,16.2958984 48.9794922,16.2958984 C45.2841797,16.2958984 42.8886719,14.4804688 42.7705078,11.5908203 Z M65.3291016,15.8984375 L62.0849609,15.8984375 L62.0849609,3.16894531 L57.4335938,3.16894531 L57.4335938,0.397460938 L69.9804688,0.397460938 L69.9804688,3.16894531 L65.3291016,3.16894531 L65.3291016,15.8984375 Z M85.1054688,16.2958984 C80.6152344,16.2958984 77.8330078,13.1914062 77.8330078,8.14257812 C77.8330078,3.10449219 80.6044922,0 85.1054688,0 C88.7792969,0 91.59375,2.43847656 91.8300781,5.81152344 L88.671875,5.81152344 C88.3603516,4.02832031 86.953125,2.85742188 85.1054688,2.85742188 C82.6669922,2.85742188 81.1523438,4.87695312 81.1523438,8.14257812 C81.1523438,11.4082031 82.6669922,13.4384766 85.1162109,13.4384766 C86.9746094,13.4384766 88.3710938,12.3427734 88.6826172,10.6347656 L91.8408203,10.6347656 C91.5722656,13.9863281 88.84375,16.2958984 85.1054688,16.2958984 Z M104.967773,13.0732422 L104.967773,15.8984375 L94.8271484,15.8984375 L94.8271484,0.397460938 L98.0712891,0.397460938 L98.0712891,13.0732422 L104.967773,13.0732422 Z M111.155273,15.8984375 L107.911133,15.8984375 L107.911133,0.397460938 L111.155273,0.397460938 L111.155273,15.8984375 Z M121.693359,16.2958984 C117.106445,16.2958984 114.227539,13.2021484 114.227539,8.14257812 C114.227539,3.11523438 117.138672,0 121.693359,0 C126.248047,0 129.137695,3.11523438 129.137695,8.14257812 C129.137695,10.9248047 128.267578,13.1484375 126.699219,14.4912109 L128.62207,17.4130859 L125.485352,17.4130859 L124.411133,15.8876953 C123.594727,16.15625 122.670898,16.2958984 121.693359,16.2958984 Z M121.704102,13.4492188 C122.09082,13.4492188 122.456055,13.3955078 122.821289,13.3095703 L121.05957,10.7314453 L124.00293,10.7314453 L124.722656,11.6015625 C125.431641,10.8388672 125.829102,9.63574219 125.829102,8.14257812 C125.829102,4.8984375 124.196289,2.84667969 121.693359,2.84667969 C119.179688,2.84667969 117.546875,4.8984375 117.546875,8.14257812 C117.546875,11.4082031 119.168945,13.4492188 121.704102,13.4492188 Z M142.479492,13.1269531 L142.479492,15.8984375 L132.209961,15.8984375 L132.209961,0.397460938 L142.479492,0.397460938 L142.479492,3.16894531 L135.454102,3.16894531 L135.454102,6.7890625 L142.082031,6.7890625 L142.082031,9.35644531 L135.454102,9.35644531 L135.454102,13.1269531 L142.479492,13.1269531 Z M145.895508,0.38671875 L151.99707,0.38671875 C156.605469,0.38671875 159.269531,3.1796875 159.269531,8.03515625 C159.269531,13.0732422 156.637695,15.8984375 151.99707,15.8984375 L145.895508,15.8984375 L145.895508,0.38671875 Z M149.139648,3.15820312 L149.139648,13.1269531 L151.481445,13.1269531 C154.349609,13.1269531 155.960938,11.3652344 155.960938,8.08886719 C155.960938,4.95214844 154.295898,3.15820312 151.481445,3.15820312 L149.139648,3.15820312 Z M167.304688,11.5908203 L170.441406,11.5908203 C170.591797,12.8476562 171.859375,13.6533203 173.685547,13.6533203 C175.37207,13.6533203 176.564453,12.8369141 176.564453,11.6660156 C176.564453,10.6777344 175.791016,10.1083984 173.889648,9.70019531 L171.870117,9.27050781 C169.044922,8.6796875 167.65918,7.20800781 167.65918,4.84472656 C167.65918,1.92285156 170.011719,0 173.588867,0 C177.004883,0 179.421875,1.91210938 179.518555,4.67285156 L176.467773,4.67285156 C176.317383,3.44824219 175.178711,2.63183594 173.610352,2.63183594 C171.988281,2.63183594 170.914062,3.38378906 170.914062,4.56542969 C170.914062,5.52148438 171.655273,6.06933594 173.470703,6.45605469 L175.339844,6.85351562 C178.455078,7.50878906 179.797852,8.8515625 179.797852,11.2578125 C179.797852,14.3837891 177.402344,16.2958984 173.513672,16.2958984 C169.818359,16.2958984 167.422852,14.4804688 167.304688,11.5908203 Z M189.863281,15.8984375 L186.619141,15.8984375 L186.619141,3.16894531 L181.967773,3.16894531 L181.967773,0.397460938 L194.514648,0.397460938 L194.514648,3.16894531 L189.863281,3.16894531 L189.863281,15.8984375 Z M204.923828,15.8984375 L201.679688,15.8984375 L201.679688,10.1943359 L196.276367,0.397460938 L199.789062,0.397460938 L203.205078,6.88574219 L203.398438,6.88574219 L206.803711,0.397460938 L210.316406,0.397460938 L204.923828,10.1943359 L204.923828,15.8984375 Z M223.110352,13.0732422 L223.110352,15.8984375 L212.969727,15.8984375 L212.969727,0.397460938 L216.213867,0.397460938 L216.213867,13.0732422 L223.110352,13.0732422 Z M236.323242,13.1269531 L236.323242,15.8984375 L226.053711,15.8984375 L226.053711,0.397460938 L236.323242,0.397460938 L236.323242,3.16894531 L229.297852,3.16894531 L229.297852,6.7890625 L235.925781,6.7890625 L235.925781,9.35644531 L229.297852,9.35644531 L229.297852,13.1269531 L236.323242,13.1269531 Z M239.041016,11.5908203 L242.177734,11.5908203 C242.328125,12.8476562 243.595703,13.6533203 245.421875,13.6533203 C247.108398,13.6533203 248.300781,12.8369141 248.300781,11.6660156 C248.300781,10.6777344 247.527344,10.1083984 245.625977,9.70019531 L243.606445,9.27050781 C240.78125,8.6796875 239.395508,7.20800781 239.395508,4.84472656 C239.395508,1.92285156 241.748047,0 245.325195,0 C248.741211,0 251.158203,1.91210938 251.254883,4.67285156 L248.204102,4.67285156 C248.053711,3.44824219 246.915039,2.63183594 245.34668,2.63183594 C243.724609,2.63183594 242.650391,3.38378906 242.650391,4.56542969 C242.650391,5.52148438 243.391602,6.06933594 245.207031,6.45605469 L247.076172,6.85351562 C250.191406,7.50878906 251.53418,8.8515625 251.53418,11.2578125 C251.53418,14.3837891 249.138672,16.2958984 245.25,16.2958984 C241.554688,16.2958984 239.15918,14.4804688 239.041016,11.5908203 Z" id="MOSTCLIQEDSTYLES" fill="#000000" fill-rule="nonzero"></path>
                    <g id="Group-36" transform="translate(0.000000, 8.000000)" fill="#0A0B09">
                        <g id="Group-34" transform="translate(47.000000, 18.500000) rotate(11.000000) translate(-47.000000, -18.500000) translate(1.000000, 9.000000)">
                            <path d="M0.350773579,18.4441554 C0.186419988,18.4441554 0.0390940215,18.3272215 0.00651943584,18.1599616 C-0.0304971387,17.9697589 0.0938785519,17.7847369 0.284143745,17.7477325 L91.1302211,0.00634042046 C91.3227073,-0.0299238967 91.5055692,0.0929307288 91.5425857,0.28387346 C91.5796023,0.473336015 91.4552266,0.658358042 91.2649614,0.695362447 L0.418884077,18.4374946 L0.350773579,18.4441554" id="Fill-100"></path>
                            <path d="M51.9681658,12.4716444 C51.8030719,12.4716444 51.6564863,12.3554506 51.6239117,12.1874506 C51.5861548,11.997988 51.7105305,11.812966 51.901536,11.7759616 L87.9238454,4.74956509 C88.1155913,4.71626113 88.2991935,4.83689549 88.33621,5.02709813 C88.3732266,5.21730077 88.2488509,5.4023228 88.0585857,5.43858712 L52.035536,12.4649836 L51.9681658,12.4716444" id="Fill-101"></path>
                        </g>
                        <g id="Group-34-Copy" transform="translate(210.000000, 18.500000) scale(-1, 1) rotate(11.000000) translate(-210.000000, -18.500000) translate(164.000000, 9.000000)">
                            <path d="M0.350773579,18.4441554 C0.186419988,18.4441554 0.0390940215,18.3272215 0.00651943584,18.1599616 C-0.0304971387,17.9697589 0.0938785519,17.7847369 0.284143745,17.7477325 L91.1302211,0.00634042046 C91.3227073,-0.0299238967 91.5055692,0.0929307288 91.5425857,0.28387346 C91.5796023,0.473336015 91.4552266,0.658358042 91.2649614,0.695362447 L0.418884077,18.4374946 L0.350773579,18.4441554" id="Fill-100"></path>
                            <path d="M51.9681658,12.4716444 C51.8030719,12.4716444 51.6564863,12.3554506 51.6239117,12.1874506 C51.5861548,11.997988 51.7105305,11.812966 51.901536,11.7759616 L87.9238454,4.74956509 C88.1155913,4.71626113 88.2991935,4.83689549 88.33621,5.02709813 C88.3732266,5.21730077 88.2488509,5.4023228 88.0585857,5.43858712 L52.035536,12.4649836 L51.9681658,12.4716444" id="Fill-101"></path>
                        </g>
                    </g>
                </g>
            </g>
        </g>
    </g>
</svg>