<?xml version="1.0" encoding="UTF-8"?>
<svg width="238px" height="68px" viewBox="0 0 238 68" version="1.1" xmlns="http://www.w3.org/2000/svg" xmlns:xlink="http://www.w3.org/1999/xlink">
    <!-- Generator: Sketch 55.2 (78181) - https://sketchapp.com -->
    <title>Group 30</title>
    <desc>Created with Sketch.</desc>
    <g id="Page-1" stroke="none" stroke-width="1" fill="none" fill-rule="evenodd">
        <g id="Desktop-HD-Copy" transform="translate(-825.000000, -2396.000000)">
            <g id="Group-30" transform="translate(825.000000, 2396.000000)">
                <g id="Group-25">
                    <polygon id="Rectangle" fill="#FFFFFF" points="0 0 237 0 236.666531 68 0 68"></polygon>
                    <g id="Group-23" transform="translate(23.000000, 15.000000)" fill-rule="nonzero">
                        <g id="355698">
                            <polygon id="Path" fill="#FF9911" points="20.1960368 22.1757723 24.5837563 19.5744681 6.93086676 37.3987742 2.54314721 40"></polygon>
                            <polygon id="Path" fill="#FFEB9A" points="11.3931778 17.3383587 16.1871647 14.4680851 24.5837563 19.5744681 20.3451777 22.2254547"></polygon>
                            <polygon id="Path" fill="#FF9911" points="17.7742242 8.5106383 22.0406091 5.82163038 16.1871647 14.4680851 11.3931778 17.3383587"></polygon>
                            <polygon id="Path" fill="#FFEB9A" points="8.47715736 2.68908898 12.743617 0 22.0406091 5.82163038 17.7742242 8.5106383"></polygon>
                            <polygon id="Path" fill="#FEDA44" points="20.3451777 22.2254547 2.54314721 40 9.50426786 22.0440195 0 16.5787547 8.47715736 2.68908898 17.7742242 8.5106383 11.6326246 17.21542"></polygon>
                        </g>
                    </g>
                    <path d="M237,63 L237,5" id="Line-2" stroke="#979797" opacity="0.190429688" stroke-linecap="square"></path>
                </g>
                <path d="M66.4780273,31 L62.0791016,31 L62.0791016,21.840332 L66.3510742,21.840332 C68.1791992,21.840332 69.2583008,22.7036133 69.2583008,24.1254883 C69.2583008,25.109375 68.5219727,25.940918 67.5507812,26.0742188 L67.5507812,26.1948242 C68.7504883,26.2583008 69.6772461,27.1914062 69.6772461,28.359375 C69.6772461,29.965332 68.4394531,31 66.4780273,31 Z M64.4086914,23.484375 L64.4086914,25.5727539 L65.6401367,25.5727539 C66.4907227,25.5727539 66.9858398,25.1791992 66.9858398,24.5317383 C66.9858398,23.8779297 66.5224609,23.484375 65.7290039,23.484375 L64.4086914,23.484375 Z M64.4086914,29.355957 L65.8178711,29.355957 C66.7827148,29.355957 67.3095703,28.9306641 67.3095703,28.15625 C67.3095703,27.4072266 66.7700195,26.9882812 65.8051758,26.9882812 L64.4086914,26.9882812 L64.4086914,29.355957 Z M77.8911133,23.9350586 L77.8911133,31 L75.7075195,31 L75.7075195,29.8574219 L75.5869141,29.8574219 C75.2568359,30.6889648 74.6474609,31.1650391 73.5810547,31.1650391 C72.0830078,31.1650391 71.0737305,30.1811523 71.0737305,28.5498047 L71.0737305,23.9350586 L73.3144531,23.9350586 L73.3144531,27.9975586 C73.3144531,28.8608398 73.7397461,29.3178711 74.4633789,29.3178711 C75.2314453,29.3178711 75.644043,28.7973633 75.644043,27.972168 L75.644043,23.9350586 L77.8911133,23.9350586 Z M80.6586914,33.5708008 C80.6269531,33.5708008 79.871582,33.5708008 79.8398438,33.5644531 L79.8398438,31.8569336 C79.871582,31.8632812 80.2016602,31.8696289 80.2333984,31.8696289 C80.9633789,31.8696289 81.3886719,31.6728516 81.4648438,31.2539062 L81.496582,31.0571289 L79.0844727,23.9350586 L81.5664062,23.9350586 L82.8295898,29.1147461 L82.9501953,29.1147461 L84.2133789,23.9350586 L86.5874023,23.9350586 L84.3149414,30.9873047 C83.7119141,32.8725586 82.6835938,33.5708008 80.6586914,33.5708008 Z M90.7705078,28.3911133 L92.9921875,28.3911133 C93.0493164,29.0576172 93.7158203,29.4829102 94.6806641,29.4829102 C95.550293,29.4829102 96.1469727,29.0639648 96.1469727,28.4609375 C96.1469727,27.953125 95.7470703,27.6801758 94.699707,27.4707031 L93.4936523,27.2294922 C91.8178711,26.9121094 90.9545898,25.9980469 90.9545898,24.5571289 C90.9545898,22.7670898 92.3891602,21.5927734 94.5981445,21.5927734 C96.7436523,21.5927734 98.2290039,22.7543945 98.2670898,24.4492188 L96.1152344,24.4492188 C96.0644531,23.8017578 95.4487305,23.3510742 94.6298828,23.3510742 C93.8110352,23.3510742 93.2714844,23.7382812 93.2714844,24.3476562 C93.2714844,24.8491211 93.6777344,25.1411133 94.6425781,25.331543 L95.8232422,25.5600586 C97.6323242,25.9091797 98.4448242,26.7280273 98.4448242,28.1816406 C98.4448242,30.0922852 96.9848633,31.2475586 94.5854492,31.2475586 C92.2685547,31.2475586 90.8085938,30.1557617 90.7705078,28.3911133 Z M100,31 L100,23.9350586 L102.183594,23.9350586 L102.183594,25.1030273 L102.304199,25.1030273 C102.577148,24.2841797 103.326172,23.7700195 104.25293,23.7700195 C105.262207,23.7700195 105.947754,24.2524414 106.214355,25.1030273 L106.334961,25.1030273 C106.626953,24.296875 107.452148,23.7700195 108.44873,23.7700195 C109.838867,23.7700195 110.75293,24.722168 110.75293,26.1694336 L110.75293,31 L108.512207,31 L108.512207,26.7407227 C108.512207,25.9790039 108.169434,25.6044922 107.490234,25.6044922 C106.849121,25.6044922 106.449219,26.0678711 106.449219,26.7597656 L106.449219,31 L104.303711,31 L104.303711,26.7026367 C104.303711,25.9916992 103.941895,25.6044922 103.294434,25.6044922 C102.666016,25.6044922 102.240723,26.0869141 102.240723,26.7978516 L102.240723,31 L100,31 Z M115.183594,29.5400391 C115.894531,29.5400391 116.446777,29.0703125 116.446777,28.4609375 L116.446777,27.9975586 L115.259766,28.0737305 C114.593262,28.1245117 114.244141,28.3847656 114.244141,28.8100586 C114.244141,29.2607422 114.618652,29.5400391 115.183594,29.5400391 Z M114.364746,31.1079102 C113.006348,31.1079102 112.07959,30.2636719 112.07959,28.96875 C112.07959,27.6801758 113.08252,26.9311523 114.904297,26.8232422 L116.446777,26.734375 L116.446777,26.1821289 C116.446777,25.7060547 116.091309,25.4204102 115.469238,25.4204102 C114.878906,25.4204102 114.498047,25.6171875 114.352051,25.9916992 L112.333496,25.9916992 C112.435059,24.6206055 113.685547,23.7700195 115.596191,23.7700195 C117.544922,23.7700195 118.655762,24.6586914 118.655762,26.1821289 L118.655762,31 L116.472168,31 L116.472168,30.1240234 L116.351562,30.1240234 C116.03418,30.7270508 115.259766,31.1079102 114.364746,31.1079102 Z M120.363281,31 L120.363281,23.9350586 L122.546875,23.9350586 L122.546875,25.0966797 L122.66748,25.0966797 C122.838867,24.3857422 123.524414,23.8271484 124.406738,23.8271484 C124.705078,23.8271484 125.054199,23.8652344 125.219238,23.9350586 L125.219238,25.8457031 C125.047852,25.7758789 124.597168,25.71875 124.254395,25.71875 C123.26416,25.71875 122.604004,26.2773438 122.604004,27.2612305 L122.604004,31 L120.363281,31 Z M127.187012,22.3164062 L129.427734,22.3164062 L129.427734,24.0302734 L130.849609,24.0302734 L130.849609,25.699707 L129.427734,25.699707 L129.427734,28.5625 C129.427734,29.0957031 129.700684,29.355957 130.284668,29.355957 C130.544922,29.355957 130.68457,29.3432617 130.849609,29.3242188 L130.849609,30.9238281 C130.614746,30.9746094 130.202148,31.0126953 129.776855,31.0126953 C127.916992,31.0126953 127.187012,30.4477539 127.187012,29.0639648 L127.187012,25.699707 L126.101562,25.699707 L126.101562,24.0302734 L127.187012,24.0302734 L127.187012,22.3164062 Z M135.718262,21.840332 L139.72998,21.840332 C141.697754,21.840332 143.030762,23.1225586 143.030762,25.090332 C143.030762,27.0390625 141.62793,28.3149414 139.590332,28.3149414 L138.047852,28.3149414 L138.047852,31 L135.718262,31 L135.718262,21.840332 Z M138.047852,23.6303711 L138.047852,26.5566406 L139.101562,26.5566406 C140.091797,26.5566406 140.675781,26.0488281 140.675781,25.0966797 C140.675781,24.1318359 140.098145,23.6303711 139.114258,23.6303711 L138.047852,23.6303711 Z M144.598633,31 L144.598633,21.2880859 L146.794922,21.2880859 L146.794922,25.109375 L146.915527,25.109375 C147.226562,24.296875 148.013672,23.8017578 149.029297,23.8017578 C150.56543,23.8017578 151.447754,24.7475586 151.447754,26.4614258 L151.447754,31 L149.207031,31 L149.207031,26.9692383 C149.207031,26.0932617 148.807129,25.6298828 148.064453,25.6298828 C147.296387,25.6298828 146.839355,26.1821289 146.839355,26.9946289 L146.839355,31 L144.598633,31 Z M156.38623,31.1650391 C154.126465,31.1650391 152.787109,29.7875977 152.787109,27.4643555 C152.787109,25.1791992 154.164551,23.7700195 156.38623,23.7700195 C158.620605,23.7700195 159.985352,25.1665039 159.985352,27.4643555 C159.985352,29.7939453 158.652344,31.1650391 156.38623,31.1650391 Z M156.38623,29.4511719 C157.211426,29.4511719 157.681152,28.7211914 157.681152,27.4643555 C157.681152,26.2329102 157.19873,25.4838867 156.38623,25.4838867 C155.57373,25.4838867 155.091309,26.2329102 155.091309,27.4643555 C155.091309,28.7275391 155.561035,29.4511719 156.38623,29.4511719 Z M161.388184,31 L161.388184,23.9350586 L163.571777,23.9350586 L163.571777,25.0839844 L163.692383,25.0839844 C164.003418,24.2841797 164.739746,23.7700195 165.761719,23.7700195 C167.335938,23.7700195 168.154785,24.7412109 168.154785,26.4360352 L168.154785,31 L165.907715,31 L165.907715,26.9375 C165.907715,26.0805664 165.558594,25.6044922 164.796875,25.6044922 C164.066895,25.6044922 163.628906,26.1503906 163.628906,26.9628906 L163.628906,31 L161.388184,31 Z M173.023438,25.3632812 C172.287109,25.3632812 171.772949,25.8774414 171.71582,26.6772461 L174.280273,26.6772461 C174.242188,25.8520508 173.772461,25.3632812 173.023438,25.3632812 Z M174.362793,28.9179688 L176.413086,28.9179688 C176.165527,30.2954102 174.870605,31.1650391 173.04248,31.1650391 C170.789062,31.1650391 169.494141,29.8320312 169.494141,27.5151367 C169.494141,25.1855469 170.820801,23.7700195 173.010742,23.7700195 C175.187988,23.7700195 176.45752,25.090332 176.45752,27.34375 L176.45752,27.9658203 L171.703125,27.9658203 L171.703125,28.0800781 C171.722168,29.0004883 172.249023,29.5717773 173.105957,29.5717773 C173.759766,29.5717773 174.210449,29.3305664 174.362793,28.9179688 Z M177.695312,26.0615234 C177.695312,24.6586914 178.89502,23.7700195 180.799316,23.7700195 C182.754395,23.7700195 183.827148,24.5253906 183.909668,25.9472656 L181.865723,25.9472656 C181.802246,25.534668 181.427734,25.2871094 180.818359,25.2871094 C180.234375,25.2871094 179.828125,25.5410156 179.828125,25.921875 C179.828125,26.2202148 180.082031,26.3979492 180.640625,26.5185547 L182.100586,26.8168945 C183.490723,27.1088867 184.09375,27.6865234 184.09375,28.7592773 C184.09375,30.2255859 182.805176,31.1650391 180.831055,31.1650391 C178.806152,31.1650391 177.650879,30.3969727 177.523926,28.9750977 L179.688477,28.9750977 C179.802734,29.4130859 180.202637,29.6479492 180.862793,29.6479492 C181.478516,29.6479492 181.878418,29.4003906 181.878418,29.0195312 C181.878418,28.7211914 181.668945,28.5625 181.104004,28.4418945 L179.790039,28.1625977 C178.387207,27.8642578 177.695312,27.1723633 177.695312,26.0615234 Z" id="BuySmartPhones" fill="#000000" fill-rule="nonzero"></path>
                <path d="M67.1767578,44.3725586 L67.1767578,46 L61.9130859,46 L61.9130859,38.2495117 L63.8842773,38.2495117 L63.8842773,44.3725586 L67.1767578,44.3725586 Z M70.9204102,46.1396484 C69.0083008,46.1396484 67.875,44.9741211 67.875,43.0083008 C67.875,41.074707 69.0405273,39.8823242 70.9204102,39.8823242 C72.8110352,39.8823242 73.9658203,41.0639648 73.9658203,43.0083008 C73.9658203,44.9794922 72.8378906,46.1396484 70.9204102,46.1396484 Z M70.9204102,44.6894531 C71.6186523,44.6894531 72.0161133,44.0717773 72.0161133,43.0083008 C72.0161133,41.9663086 71.6079102,41.3325195 70.9204102,41.3325195 C70.2329102,41.3325195 69.824707,41.9663086 69.824707,43.0083008 C69.824707,44.0771484 70.222168,44.6894531 70.9204102,44.6894531 Z M83.5854492,40.0219727 L82.0385742,46 L79.9921875,46 L79.0576172,42.0629883 L78.9555664,42.0629883 L78.0317383,46 L76.0175781,46 L74.4599609,40.0219727 L76.3828125,40.0219727 L77.1293945,44.1201172 L77.2314453,44.1201172 L78.1337891,40.0219727 L79.9438477,40.0219727 L80.8569336,44.1201172 L80.9589844,44.1201172 L81.7055664,40.0219727 L83.5854492,40.0219727 Z M87.0712891,41.2304688 C86.4482422,41.2304688 86.0131836,41.6655273 85.9648438,42.3422852 L88.1347656,42.3422852 C88.1025391,41.644043 87.7050781,41.2304688 87.0712891,41.2304688 Z M88.2045898,44.2382812 L89.9394531,44.2382812 C89.7299805,45.4038086 88.6342773,46.1396484 87.0874023,46.1396484 C85.1806641,46.1396484 84.0849609,45.0117188 84.0849609,43.0512695 C84.0849609,41.0800781 85.2075195,39.8823242 87.0605469,39.8823242 C88.902832,39.8823242 89.9770508,40.9995117 89.9770508,42.90625 L89.9770508,43.4326172 L85.9541016,43.4326172 L85.9541016,43.5292969 C85.9702148,44.3081055 86.4160156,44.7915039 87.1411133,44.7915039 C87.6943359,44.7915039 88.0756836,44.5874023 88.2045898,44.2382812 Z M91.0244141,41.8212891 C91.0244141,40.6342773 92.0395508,39.8823242 93.6508789,39.8823242 C95.3051758,39.8823242 96.2128906,40.5214844 96.2827148,41.7246094 L94.5532227,41.7246094 C94.4995117,41.3754883 94.1826172,41.1660156 93.6669922,41.1660156 C93.1728516,41.1660156 92.8291016,41.3808594 92.8291016,41.703125 C92.8291016,41.9555664 93.0439453,42.105957 93.5166016,42.2080078 L94.7519531,42.4604492 C95.9282227,42.7075195 96.4384766,43.1962891 96.4384766,44.1040039 C96.4384766,45.3447266 95.3481445,46.1396484 93.6777344,46.1396484 C91.9643555,46.1396484 90.9868164,45.4897461 90.8793945,44.2866211 L92.7109375,44.2866211 C92.8076172,44.6572266 93.1459961,44.855957 93.7045898,44.855957 C94.2255859,44.855957 94.5639648,44.6464844 94.5639648,44.3242188 C94.5639648,44.0717773 94.3867188,43.9375 93.9086914,43.8354492 L92.796875,43.5991211 C91.6098633,43.3466797 91.0244141,42.7612305 91.0244141,41.8212891 Z M98.1088867,38.6523438 L100.004883,38.6523438 L100.004883,40.1025391 L101.208008,40.1025391 L101.208008,41.5151367 L100.004883,41.5151367 L100.004883,43.9375 C100.004883,44.3886719 100.23584,44.6088867 100.72998,44.6088867 C100.950195,44.6088867 101.068359,44.5981445 101.208008,44.5820312 L101.208008,45.9355469 C101.009277,45.9785156 100.660156,46.0107422 100.300293,46.0107422 C98.7265625,46.0107422 98.1088867,45.5327148 98.1088867,44.3618164 L98.1088867,41.5151367 L97.1904297,41.5151367 L97.1904297,40.1025391 L98.1088867,40.1025391 L98.1088867,38.6523438 Z M105.327637,38.2495117 L108.722168,38.2495117 C110.387207,38.2495117 111.515137,39.3344727 111.515137,40.9995117 C111.515137,42.6484375 110.328125,43.7280273 108.604004,43.7280273 L107.298828,43.7280273 L107.298828,46 L105.327637,46 L105.327637,38.2495117 Z M107.298828,39.7641602 L107.298828,42.2402344 L108.19043,42.2402344 C109.02832,42.2402344 109.522461,41.8105469 109.522461,41.0048828 C109.522461,40.1884766 109.033691,39.7641602 108.201172,39.7641602 L107.298828,39.7641602 Z M112.788086,46 L112.788086,40.0219727 L114.635742,40.0219727 L114.635742,41.0048828 L114.737793,41.0048828 C114.882812,40.4033203 115.462891,39.9306641 116.209473,39.9306641 C116.461914,39.9306641 116.757324,39.9628906 116.896973,40.0219727 L116.896973,41.6386719 C116.751953,41.5795898 116.370605,41.53125 116.080566,41.53125 C115.242676,41.53125 114.684082,42.0039062 114.684082,42.8364258 L114.684082,46 L112.788086,46 Z M117.890625,46 L117.890625,40.0219727 L119.791992,40.0219727 L119.791992,46 L117.890625,46 Z M118.841309,39.3291016 C118.175293,39.3291016 117.772461,38.9907227 117.772461,38.4858398 C117.772461,37.9755859 118.175293,37.637207 118.841309,37.637207 C119.512695,37.637207 119.915527,37.9755859 119.915527,38.4858398 C119.915527,38.9907227 119.512695,39.3291016 118.841309,39.3291016 Z M126.758301,42.2348633 L125.012695,42.2348633 C124.932129,41.6762695 124.588379,41.3432617 124.008301,41.3432617 C123.26709,41.3432617 122.891113,41.8964844 122.891113,43.0029297 C122.891113,44.1201172 123.272461,44.6787109 124.008301,44.6787109 C124.577637,44.6787109 124.926758,44.3886719 125.012695,43.8300781 L126.758301,43.8300781 C126.645508,45.2587891 125.630371,46.1396484 124.008301,46.1396484 C122.037109,46.1396484 120.984375,45.0439453 120.984375,43.0029297 C120.984375,40.9726562 122.037109,39.8823242 124.008301,39.8823242 C125.657227,39.8823242 126.640137,40.7685547 126.758301,42.2348633 Z M130.593262,41.2304688 C129.970215,41.2304688 129.535156,41.6655273 129.486816,42.3422852 L131.656738,42.3422852 C131.624512,41.644043 131.227051,41.2304688 130.593262,41.2304688 Z M131.726562,44.2382812 L133.461426,44.2382812 C133.251953,45.4038086 132.15625,46.1396484 130.609375,46.1396484 C128.702637,46.1396484 127.606934,45.0117188 127.606934,43.0512695 C127.606934,41.0800781 128.729492,39.8823242 130.58252,39.8823242 C132.424805,39.8823242 133.499023,40.9995117 133.499023,42.90625 L133.499023,43.4326172 L129.476074,43.4326172 L129.476074,43.5292969 C129.492188,44.3081055 129.937988,44.7915039 130.663086,44.7915039 C131.216309,44.7915039 131.597656,44.5874023 131.726562,44.2382812 Z M134.546387,41.8212891 C134.546387,40.6342773 135.561523,39.8823242 137.172852,39.8823242 C138.827148,39.8823242 139.734863,40.5214844 139.804688,41.7246094 L138.075195,41.7246094 C138.021484,41.3754883 137.70459,41.1660156 137.188965,41.1660156 C136.694824,41.1660156 136.351074,41.3808594 136.351074,41.703125 C136.351074,41.9555664 136.565918,42.105957 137.038574,42.2080078 L138.273926,42.4604492 C139.450195,42.7075195 139.960449,43.1962891 139.960449,44.1040039 C139.960449,45.3447266 138.870117,46.1396484 137.199707,46.1396484 C135.486328,46.1396484 134.508789,45.4897461 134.401367,44.2866211 L136.23291,44.2866211 C136.32959,44.6572266 136.667969,44.855957 137.226562,44.855957 C137.747559,44.855957 138.085938,44.6464844 138.085938,44.3242188 C138.085938,44.0717773 137.908691,43.9375 137.430664,43.8354492 L136.318848,43.5991211 C135.131836,43.3466797 134.546387,42.7612305 134.546387,41.8212891 Z M150.998047,42.7719727 C150.998047,44.9042969 149.671387,46.2094727 147.47998,46.2094727 C145.095215,46.2094727 143.661133,44.6679688 143.661133,42.1166992 C143.661133,39.5976562 145.100586,38.0400391 147.42627,38.0400391 C149.316895,38.0400391 150.724121,39.1411133 150.91748,40.7792969 L148.973145,40.7792969 C148.779785,40.097168 148.199707,39.6835938 147.42627,39.6835938 C146.325195,39.6835938 145.669922,40.5859375 145.669922,42.0952148 C145.669922,43.6313477 146.39502,44.565918 147.522949,44.565918 C148.419922,44.565918 149.042969,44.0395508 149.091309,43.2553711 L149.09668,43.1264648 L147.678711,43.1264648 L147.678711,41.7729492 L150.998047,41.7729492 L150.998047,42.7719727 Z M158.012695,40.0219727 L158.012695,46 L156.165039,46 L156.165039,45.0332031 L156.062988,45.0332031 C155.783691,45.7368164 155.268066,46.1396484 154.365723,46.1396484 C153.098145,46.1396484 152.244141,45.3071289 152.244141,43.9267578 L152.244141,40.0219727 L154.140137,40.0219727 L154.140137,43.4594727 C154.140137,44.1899414 154.5,44.5766602 155.112305,44.5766602 C155.762207,44.5766602 156.111328,44.1362305 156.111328,43.4379883 L156.111328,40.0219727 L158.012695,40.0219727 Z M161.81543,44.7646484 C162.416992,44.7646484 162.884277,44.3671875 162.884277,43.8515625 L162.884277,43.4594727 L161.879883,43.5239258 C161.315918,43.5668945 161.020508,43.7871094 161.020508,44.1469727 C161.020508,44.5283203 161.337402,44.7646484 161.81543,44.7646484 Z M161.122559,46.0913086 C159.973145,46.0913086 159.188965,45.3769531 159.188965,44.28125 C159.188965,43.190918 160.037598,42.5571289 161.579102,42.4658203 L162.884277,42.390625 L162.884277,41.9233398 C162.884277,41.5205078 162.583496,41.2788086 162.057129,41.2788086 C161.557617,41.2788086 161.235352,41.4453125 161.111816,41.762207 L159.403809,41.762207 C159.489746,40.6020508 160.547852,39.8823242 162.164551,39.8823242 C163.813477,39.8823242 164.753418,40.6342773 164.753418,41.9233398 L164.753418,46 L162.905762,46 L162.905762,45.2587891 L162.803711,45.2587891 C162.535156,45.769043 161.879883,46.0913086 161.122559,46.0913086 Z M166.198242,46 L166.198242,40.0219727 L168.045898,40.0219727 L168.045898,41.0048828 L168.147949,41.0048828 C168.292969,40.4033203 168.873047,39.9306641 169.619629,39.9306641 C169.87207,39.9306641 170.16748,39.9628906 170.307129,40.0219727 L170.307129,41.6386719 C170.162109,41.5795898 169.780762,41.53125 169.490723,41.53125 C168.652832,41.53125 168.094238,42.0039062 168.094238,42.8364258 L168.094238,46 L166.198242,46 Z M173.45459,44.7646484 C174.056152,44.7646484 174.523438,44.3671875 174.523438,43.8515625 L174.523438,43.4594727 L173.519043,43.5239258 C172.955078,43.5668945 172.659668,43.7871094 172.659668,44.1469727 C172.659668,44.5283203 172.976562,44.7646484 173.45459,44.7646484 Z M172.761719,46.0913086 C171.612305,46.0913086 170.828125,45.3769531 170.828125,44.28125 C170.828125,43.190918 171.676758,42.5571289 173.218262,42.4658203 L174.523438,42.390625 L174.523438,41.9233398 C174.523438,41.5205078 174.222656,41.2788086 173.696289,41.2788086 C173.196777,41.2788086 172.874512,41.4453125 172.750977,41.762207 L171.042969,41.762207 C171.128906,40.6020508 172.187012,39.8823242 173.803711,39.8823242 C175.452637,39.8823242 176.392578,40.6342773 176.392578,41.9233398 L176.392578,46 L174.544922,46 L174.544922,45.2587891 L174.442871,45.2587891 C174.174316,45.769043 173.519043,46.0913086 172.761719,46.0913086 Z M177.837402,46 L177.837402,40.0219727 L179.685059,40.0219727 L179.685059,40.9941406 L179.787109,40.9941406 C180.050293,40.3173828 180.67334,39.8823242 181.538086,39.8823242 C182.870117,39.8823242 183.562988,40.7041016 183.562988,42.1381836 L183.562988,46 L181.661621,46 L181.661621,42.5625 C181.661621,41.8374023 181.366211,41.4345703 180.72168,41.4345703 C180.104004,41.4345703 179.733398,41.8964844 179.733398,42.5839844 L179.733398,46 L177.837402,46 Z M185.464355,38.6523438 L187.360352,38.6523438 L187.360352,40.1025391 L188.563477,40.1025391 L188.563477,41.5151367 L187.360352,41.5151367 L187.360352,43.9375 C187.360352,44.3886719 187.591309,44.6088867 188.085449,44.6088867 C188.305664,44.6088867 188.423828,44.5981445 188.563477,44.5820312 L188.563477,45.9355469 C188.364746,45.9785156 188.015625,46.0107422 187.655762,46.0107422 C186.082031,46.0107422 185.464355,45.5327148 185.464355,44.3618164 L185.464355,41.5151367 L184.545898,41.5151367 L184.545898,40.1025391 L185.464355,40.1025391 L185.464355,38.6523438 Z M192.484375,41.2304688 C191.861328,41.2304688 191.42627,41.6655273 191.37793,42.3422852 L193.547852,42.3422852 C193.515625,41.644043 193.118164,41.2304688 192.484375,41.2304688 Z M193.617676,44.2382812 L195.352539,44.2382812 C195.143066,45.4038086 194.047363,46.1396484 192.500488,46.1396484 C190.59375,46.1396484 189.498047,45.0117188 189.498047,43.0512695 C189.498047,41.0800781 190.620605,39.8823242 192.473633,39.8823242 C194.315918,39.8823242 195.390137,40.9995117 195.390137,42.90625 L195.390137,43.4326172 L191.367188,43.4326172 L191.367188,43.5292969 C191.383301,44.3081055 191.829102,44.7915039 192.554199,44.7915039 C193.107422,44.7915039 193.48877,44.5874023 193.617676,44.2382812 Z M199.262695,41.2304688 C198.639648,41.2304688 198.20459,41.6655273 198.15625,42.3422852 L200.326172,42.3422852 C200.293945,41.644043 199.896484,41.2304688 199.262695,41.2304688 Z M200.395996,44.2382812 L202.130859,44.2382812 C201.921387,45.4038086 200.825684,46.1396484 199.278809,46.1396484 C197.37207,46.1396484 196.276367,45.0117188 196.276367,43.0512695 C196.276367,41.0800781 197.398926,39.8823242 199.251953,39.8823242 C201.094238,39.8823242 202.168457,40.9995117 202.168457,42.90625 L202.168457,43.4326172 L198.145508,43.4326172 L198.145508,43.5292969 C198.161621,44.3081055 198.607422,44.7915039 199.33252,44.7915039 C199.885742,44.7915039 200.26709,44.5874023 200.395996,44.2382812 Z M205.455566,46.0913086 C203.957031,46.0913086 203.054688,44.9204102 203.054688,42.9975586 C203.054688,41.0908203 203.962402,39.9306641 205.455566,39.9306641 C206.255859,39.9306641 206.900391,40.3227539 207.195801,40.9833984 L207.297852,40.9833984 L207.297852,37.7822266 L209.199219,37.7822266 L209.199219,46 L207.346191,46 L207.346191,45.0654297 L207.244141,45.0654297 C206.94873,45.7099609 206.288086,46.0913086 205.455566,46.0913086 Z M206.153809,41.4238281 C205.434082,41.4238281 205.004395,42.0253906 205.004395,43.0083008 C205.004395,44.0019531 205.428711,44.5981445 206.153809,44.5981445 C206.878906,44.5981445 207.308594,44.0019531 207.308594,43.0136719 C207.308594,42.0307617 206.873535,41.4238281 206.153809,41.4238281 Z" id="LowestPricesGuaranteed" fill="#000000" fill-rule="nonzero"></path>
            </g>
        </g>
    </g>
</svg>