<?xml version="1.0" encoding="UTF-8"?>
<svg width="21px" height="21px" viewBox="0 0 21 21" version="1.1" xmlns="http://www.w3.org/2000/svg" xmlns:xlink="http://www.w3.org/1999/xlink">
    <!-- Generator: Sketch 55.2 (78181) - https://sketchapp.com -->
    <title>54990</title>
    <desc>Created with Sketch.</desc>
    <g id="Page-1" stroke="none" stroke-width="1" fill="none" fill-rule="evenodd">
        <g id="Desktop-HD-Copy-2" transform="translate(-810.000000, -30.000000)" fill="#FF1644" fill-rule="nonzero">
            <g id="54990" transform="translate(810.000000, 30.000000)">
                <path d="M20.5271912,18.2408375 L16.7327794,14.4476645 C17.7729657,12.9569478 18.3876618,11.1483775 18.3876618,9.19397147 C18.3876618,4.1162765 14.2714559,0 9.19384804,0 C4.1162402,0 0,4.1162765 0,9.19397147 C0,14.2716664 4.11620588,18.3879429 9.19381373,18.3879429 C11.1481863,18.3879429 12.9567255,17.7732706 14.4474167,16.7330322 L18.2405245,20.5262051 C18.8722745,21.1579316 19.8954412,21.1579316 20.5271912,20.5262051 C21.1576029,19.8957482 21.1576029,18.8725983 20.5271912,18.2408375 Z M9.19381373,15.7610792 C5.5675049,15.7610792 2.62681863,12.8203425 2.62681863,9.19397147 C2.62681863,5.56760042 5.56753922,2.6268637 9.19381373,2.6268637 C12.8201225,2.6268637 15.7608088,5.56763474 15.7608088,9.19397147 C15.7608088,12.8203425 12.8201225,15.7610792 9.19381373,15.7610792 Z" id="Shape"></path>
            </g>
        </g>
    </g>
</svg>