<?xml version="1.0" encoding="UTF-8"?>
<svg width="29px" height="22px" viewBox="0 0 29 22" version="1.1" xmlns="http://www.w3.org/2000/svg" xmlns:xlink="http://www.w3.org/1999/xlink">
    <!-- Generator: Sketch 55.2 (78181) - https://sketchapp.com -->
    <title>1559863</title>
    <desc>Created with Sketch.</desc>
    <g id="Page-1" stroke="none" stroke-width="1" fill="none" fill-rule="evenodd">
        <g id="Desktop-HD-Copy-2" transform="translate(-1030.000000, -29.000000)" fill="#FFFFFF" fill-rule="nonzero">
            <g id="1559863" transform="translate(1030.000000, 29.000000)">
                <path d="M28.8583833,12.255538 L22.8582833,6.41366083 C22.5869691,6.14779761 22.2175835,5.99882123 21.83265,6.00000702 L13.5333333,6.00000702 L13.5333333,6.94118977 L15.95,6.94118977 L15.95,14.000007 L16.9166667,14.000007 L16.9166667,6.94118977 L21.83265,6.94118977 C21.960995,6.94109154 22.0841101,6.99069817 22.17485,7.079072 L22.9999,7.88236541 L20.7833333,7.88236541 C20.2494581,7.88236541 19.8166667,8.3037441 19.8166667,8.82354105 L19.8166667,13.0588314 C19.8166667,13.5786284 20.2494581,14.000007 20.7833333,14.000007 L28.0333333,14.000007 L28.0333333,17.7647096 C28.0333333,18.0246081 27.8169376,18.2352974 27.55,18.2352974 L26.5446667,18.2352974 C26.3057574,16.6156344 24.8805984,15.4130982 23.2,15.4130982 C21.5194016,15.4130982 20.0942426,16.6156344 19.8553333,18.2352974 L13.0113333,18.2352974 C12.7724241,16.6156344 11.3472651,15.4130982 9.66666667,15.4130982 C7.98606825,15.4130982 6.56090927,16.6156344 6.322,18.2352974 L5.31666667,18.2352974 C5.04972904,18.2352974 4.83333333,18.0246081 4.83333333,17.7647096 L4.83333333,13.5294192 L3.86666667,13.5294192 L3.86666667,17.7647096 C3.86666667,18.5444051 4.51585378,19.1764731 5.31666667,19.1764731 L6.322,19.1764731 C6.42749677,19.8920198 6.77255277,20.5536778 7.30365,21.0588244 L0,21.0588244 L0,22.000007 L23.2,22.000007 C24.8798829,21.9968719 26.3034529,20.7951114 26.5446667,19.1764731 L27.55,19.1764731 C28.3508129,19.1764731 29,18.5444051 29,17.7647096 L29,12.5882436 C29,12.4634462 28.9490322,12.3437698 28.8583833,12.255538 Z M7.25,18.7058853 C7.25,17.4063929 8.33197852,16.3529462 9.66666667,16.3529462 C11.0013548,16.3529462 12.0833333,17.4063929 12.0833333,18.7058853 C12.0833333,20.0053776 11.0013548,21.0588244 9.66666667,21.0588244 C8.33264098,21.0572685 7.25159796,20.0047327 7.25,18.7058853 Z M12.0296833,21.0588244 C12.5607806,20.5536778 12.9058366,19.8920198 13.0113333,19.1764731 L19.8553333,19.1764731 C19.9608301,19.8920198 20.3058861,20.5536778 20.8369833,21.0588244 L12.0296833,21.0588244 Z M23.2,21.0588244 C21.8653119,21.0588244 20.7833333,20.0053776 20.7833333,18.7058853 C20.7833333,17.4063929 21.8653119,16.3529462 23.2,16.3529462 C24.5346881,16.3529462 25.6166667,17.4063929 25.6166667,18.7058853 C25.6150687,20.0047327 24.5340257,21.0572685 23.2,21.0588244 L23.2,21.0588244 Z M20.7833333,13.0588314 L20.7833333,8.82354105 L23.9665667,8.82354105 L28.0333333,12.783067 L28.0333333,13.0588314 L20.7833333,13.0588314 Z" id="Shape"></path>
                <rect id="Rectangle" x="9" y="18" width="1" height="1"></rect>
                <rect id="Rectangle" x="23" y="18" width="1" height="1"></rect>
                <rect id="Rectangle" x="0" y="17" width="2" height="1"></rect>
                <rect id="Rectangle" x="1" y="15" width="1" height="1"></rect>
                <rect id="Rectangle" x="1" y="13" width="1" height="1"></rect>
                <path d="M6.5,12 C10.0898509,12 13,9.3137085 13,6 C13,2.6862915 10.0898509,0 6.5,0 C2.91014913,0 0,2.6862915 0,6 C0.00413300952,9.31212695 2.91186247,11.9961849 6.5,12 Z M6.5,0.923076923 C9.53756612,0.923076923 12,3.19609281 12,6 C12,8.80390719 9.53756612,11.0769231 6.5,11.0769231 C3.46243388,11.0769231 1,8.80390719 1,6 C1.00358175,3.19746344 3.46391872,0.926383154 6.5,0.923076923 Z" id="Shape"></path>
                <path d="M6.5,11 C6.63259741,11 6.75975363,10.9472747 6.8535,10.8535 C7.1755,10.5315 10,7.645 10,5.5 C10,3.56700338 8.43299662,2 6.5,2 C4.56700338,2 3,3.56700338 3,5.5 C3,7.645 5.8245,10.5315 6.1465,10.8535 C6.24024637,10.9472747 6.36740259,11 6.5,11 L6.5,11 Z M6.5,3 C7.88002658,3.00165306 8.99834694,4.11997342 9,5.5 C9,6.783 7.4265,8.7655 6.5,9.7755 C5.5735,8.7655 4,6.783 4,5.5 C4.00165306,4.11997342 5.11997342,3.00165306 6.5,3 Z" id="Shape"></path>
                <path d="M8,5.5 C8,4.67157288 7.32842712,4 6.5,4 C5.67157288,4 5,4.67157288 5,5.5 C5,6.32842712 5.67157288,7 6.5,7 C7.32842712,7 8,6.32842712 8,5.5 Z M6,5.5 C6,5.22385763 6.22385763,5 6.5,5 C6.77614237,5 7,5.22385763 7,5.5 C7,5.77614237 6.77614237,6 6.5,6 C6.22385763,6 6,5.77614237 6,5.5 Z" id="Shape"></path>
                <rect id="Rectangle" x="19" y="15" width="2" height="1"></rect>
            </g>
        </g>
    </g>
</svg>